<svg xmlns="http://www.w3.org/2000/svg" viewBox="0 0 1200 675" role="img" aria-labelledby="title desc">
  <title id="title">Cloud migration for analytics teams cover</title>
  <desc id="desc">Files and manual reports moving into a cloud analytics platform.</desc>
  <rect width="1200" height="675" fill="#f9fafb"/>
  <rect x="96" y="96" width="1008" height="483" rx="34" fill="#ffffff" stroke="#d1d5db" stroke-width="3"/>
  <g fill="#fff7ed" stroke="#f59e0b" stroke-width="4">
    <rect x="164" y="190" width="170" height="118" rx="18"/>
    <rect x="198" y="336" width="170" height="118" rx="18"/>
  </g>
  <path d="M198 230h102M198 268h74M232 376h102M232 414h82" stroke="#92400e" stroke-width="9" stroke-linecap="round"/>
  <path d="M402 334h198" stroke="#64748b" stroke-width="12" stroke-linecap="round"/>
  <path d="M574 306l36 28-36 28z" fill="#64748b"/>
  <path d="M724 372h212c58 0 104-48 104-106 0-57-46-104-104-104-17 0-34 4-48 12-28-42-76-70-132-70-82 0-150 62-158 142-49 11-86 55-86 108 0 61 50 110 112 110h100" fill="#ecfeff" stroke="#0891b2" stroke-width="10" stroke-linejoin="round"/>
  <rect x="742" y="268" width="230" height="118" rx="24" fill="#ffffff" stroke="#cbd5e1" stroke-width="3"/>
  <rect x="778" y="312" width="64" height="42" rx="10" fill="#0284c7"/>
  <rect x="864" y="292" width="64" height="62" rx="10" fill="#10b981"/>
  <path d="M778 410h156" stroke="#94a3b8" stroke-width="10" stroke-linecap="round"/>
  <text x="600" y="524" text-anchor="middle" font-family="Inter, Arial, sans-serif" font-size="24" font-weight="700" fill="#111827">From manual reports to managed analytics</text>
</svg>
