<svg xmlns="http://www.w3.org/2000/svg" viewBox="0 0 1200 675" role="img" aria-labelledby="title desc">
  <title id="title">MLOps productionization cover</title>
  <desc id="desc">A model workflow moving from notebook to scheduled production.</desc>
  <rect width="1200" height="675" fill="#fafaf9"/>
  <rect x="92" y="92" width="1016" height="491" rx="34" fill="#ffffff" stroke="#d1d5db" stroke-width="3"/>
  <g>
    <rect x="150" y="210" width="210" height="150" rx="26" fill="#f1f5f9" stroke="#cbd5e1" stroke-width="3"/>
    <text x="255" y="276" text-anchor="middle" font-family="Inter, Arial, sans-serif" font-size="22" font-weight="700" fill="#111827">Notebook</text>
    <path d="M196 316h118" stroke="#94a3b8" stroke-width="9" stroke-linecap="round"/>
  </g>
  <g>
    <rect x="495" y="210" width="210" height="150" rx="26" fill="#111827"/>
    <text x="600" y="276" text-anchor="middle" font-family="Inter, Arial, sans-serif" font-size="22" font-weight="700" fill="#ffffff">Pipeline</text>
    <path d="M548 316h104" stroke="#38bdf8" stroke-width="9" stroke-linecap="round"/>
  </g>
  <g>
    <rect x="840" y="210" width="210" height="150" rx="26" fill="#ecfdf5" stroke="#10b981" stroke-width="4"/>
    <text x="945" y="276" text-anchor="middle" font-family="Inter, Arial, sans-serif" font-size="22" font-weight="700" fill="#111827">Production</text>
    <path d="M900 318l28 28 64-78" fill="none" stroke="#10b981" stroke-width="11" stroke-linecap="round" stroke-linejoin="round"/>
  </g>
  <path d="M360 285h135M705 285h135" stroke="#64748b" stroke-width="11" stroke-linecap="round"/>
  <path d="M474 260l34 25-34 25M819 260l34 25-34 25" fill="none" stroke="#64748b" stroke-width="9" stroke-linecap="round" stroke-linejoin="round"/>
  <rect x="220" y="436" width="760" height="58" rx="29" fill="#fff7ed" stroke="#f59e0b" stroke-width="3"/>
  <g font-family="Inter, Arial, sans-serif" font-size="18" font-weight="700" fill="#111827">
    <text x="360" y="473" text-anchor="middle">Version</text>
    <text x="600" y="473" text-anchor="middle">Deploy</text>
    <text x="840" y="473" text-anchor="middle">Monitor</text>
  </g>
</svg>
