<svg xmlns="http://www.w3.org/2000/svg" viewBox="0 0 1200 675" role="img" aria-labelledby="title desc">
  <title id="title">Website analytics system cover</title>
  <desc id="desc">Website activity flowing into conversion and analytics panels.</desc>
  <rect width="1200" height="675" fill="#f8fafc"/>
  <rect x="80" y="88" width="1040" height="499" rx="34" fill="#ffffff" stroke="#d1d5db" stroke-width="3"/>
  <rect x="150" y="160" width="330" height="270" rx="28" fill="#111827"/>
  <rect x="190" y="216" width="160" height="34" rx="17" fill="#ffffff"/>
  <rect x="190" y="278" width="228" height="18" rx="9" fill="#94a3b8"/>
  <rect x="190" y="318" width="178" height="18" rx="9" fill="#64748b"/>
  <rect x="190" y="370" width="118" height="38" rx="19" fill="#f59e0b"/>
  <path d="M480 292h154" stroke="#64748b" stroke-width="10" stroke-linecap="round"/>
  <path d="M612 268l34 24-34 24z" fill="#64748b"/>
  <rect x="688" y="154" width="362" height="312" rx="28" fill="#f1f5f9" stroke="#d1d5db" stroke-width="3"/>
  <path d="M738 390c38-84 80-126 126-126 48 0 70 72 116 72" fill="none" stroke="#0f766e" stroke-width="14" stroke-linecap="round"/>
  <circle cx="738" cy="390" r="10" fill="#0f766e"/>
  <circle cx="864" cy="264" r="10" fill="#0f766e"/>
  <circle cx="980" cy="336" r="10" fill="#0f766e"/>
  <rect x="728" y="204" width="84" height="42" rx="12" fill="#0284c7"/>
  <rect x="844" y="204" width="84" height="42" rx="12" fill="#e11d48"/>
  <rect x="960" y="204" width="54" height="42" rx="12" fill="#f59e0b"/>
  <rect x="338" y="490" width="524" height="48" rx="24" fill="#ecfdf5" stroke="#10b981" stroke-width="3"/>
  <text x="600" y="521" text-anchor="middle" font-family="Inter, Arial, sans-serif" font-size="20" font-weight="700" fill="#111827">Traffic, actions, and business outcomes</text>
</svg>
