<svg xmlns="http://www.w3.org/2000/svg" viewBox="0 0 1200 675" role="img" aria-labelledby="title desc">
  <title id="title">Data governance and GDPR cover</title>
  <desc id="desc">A governed analytics grid with access control and GDPR shield.</desc>
  <rect width="1200" height="675" fill="#f8fafc"/>
  <rect x="100" y="86" width="1000" height="503" rx="34" fill="#ffffff" stroke="#d1d5db" stroke-width="3"/>
  <rect x="180" y="164" width="390" height="330" rx="28" fill="#f1f5f9" stroke="#cbd5e1" stroke-width="3"/>
  <g fill="#ffffff" stroke="#d1d5db" stroke-width="3">
    <rect x="220" y="210" width="128" height="84" rx="18"/>
    <rect x="382" y="210" width="128" height="84" rx="18"/>
    <rect x="220" y="330" width="128" height="84" rx="18"/>
    <rect x="382" y="330" width="128" height="84" rx="18"/>
  </g>
  <path d="M252 252h64M414 252h64M252 372h64M414 372h64" stroke="#94a3b8" stroke-width="9" stroke-linecap="round"/>
  <path d="M790 150l180 64v122c0 102-74 162-180 210-106-48-180-108-180-210V214z" fill="#ecfdf5" stroke="#10b981" stroke-width="9" stroke-linejoin="round"/>
  <path d="M738 330l38 38 86-112" fill="none" stroke="#111827" stroke-width="14" stroke-linecap="round" stroke-linejoin="round"/>
  <rect x="642" y="504" width="296" height="44" rx="22" fill="#111827"/>
  <text x="790" y="533" text-anchor="middle" font-family="Inter, Arial, sans-serif" font-size="18" font-weight="700" fill="#ffffff">Access + quality rules</text>
  <path d="M570 330h70" stroke="#64748b" stroke-width="10" stroke-linecap="round"/>
  <path d="M622 308l28 22-28 22z" fill="#64748b"/>
</svg>
