<svg xmlns="http://www.w3.org/2000/svg" viewBox="0 0 1200 675" role="img" aria-labelledby="title desc">
  <title id="title">Data strategy before AI cover</title>
  <desc id="desc">Data foundations supporting analytics and AI layers.</desc>
  <rect width="1200" height="675" fill="#f8fafc"/>
  <rect x="112" y="110" width="976" height="455" rx="34" fill="#ffffff" stroke="#d1d5db" stroke-width="3"/>
  <g>
    <rect x="210" y="420" width="780" height="72" rx="20" fill="#111827"/>
    <text x="600" y="465" text-anchor="middle" font-family="Inter, Arial, sans-serif" font-size="24" font-weight="700" fill="#ffffff">Data foundation</text>
  </g>
  <g fill="#f1f5f9" stroke="#cbd5e1" stroke-width="3">
    <rect x="248" y="320" width="185" height="70" rx="18"/>
    <rect x="508" y="320" width="185" height="70" rx="18"/>
    <rect x="768" y="320" width="185" height="70" rx="18"/>
  </g>
  <g font-family="Inter, Arial, sans-serif" font-size="18" font-weight="700" fill="#111827">
    <text x="340" y="363" text-anchor="middle">Quality</text>
    <text x="600" y="363" text-anchor="middle">Ownership</text>
    <text x="860" y="363" text-anchor="middle">Access</text>
  </g>
  <rect x="294" y="180" width="240" height="86" rx="22" fill="#ecfeff" stroke="#0891b2" stroke-width="4"/>
  <text x="414" y="233" text-anchor="middle" font-family="Inter, Arial, sans-serif" font-size="22" font-weight="700" fill="#111827">Analytics</text>
  <rect x="666" y="180" width="240" height="86" rx="22" fill="#fef3c7" stroke="#f59e0b" stroke-width="4"/>
  <text x="786" y="233" text-anchor="middle" font-family="Inter, Arial, sans-serif" font-size="22" font-weight="700" fill="#111827">AI workflows</text>
  <path d="M414 320v-54M786 320v-54M600 420v-108" stroke="#64748b" stroke-width="8" stroke-linecap="round"/>
  <circle cx="600" cy="282" r="26" fill="#10b981"/>
  <path d="M588 282l9 9 18-24" fill="none" stroke="#ffffff" stroke-width="7" stroke-linecap="round" stroke-linejoin="round"/>
</svg>
