<svg width="1440" height="900" viewBox="0 0 1440 900" fill="none" xmlns="http://www.w3.org/2000/svg">
  <rect width="1440" height="900" fill="#FFF8FA"/>
  <rect x="0" y="0" width="1440" height="72" fill="#FFFFFF"/>
  <rect x="0" y="71" width="1440" height="1" fill="#F2D9E3"/>
  <text x="70" y="45" fill="#2F2A32" font-family="Arial, sans-serif" font-size="22" font-weight="700">RYTHM DRAP CLUB</text>
  <text x="865" y="43" fill="#7C6E77" font-family="Arial, sans-serif" font-size="15" font-weight="600">Programs</text>
  <text x="985" y="43" fill="#7C6E77" font-family="Arial, sans-serif" font-size="15" font-weight="600">Schedule</text>
  <text x="1105" y="43" fill="#7C6E77" font-family="Arial, sans-serif" font-size="15" font-weight="600">Parents</text>
  <rect x="1215" y="20" width="150" height="34" rx="17" fill="#E6477D"/>
  <text x="1250" y="42" fill="#FFFFFF" font-family="Arial, sans-serif" font-size="14" font-weight="700">Contact</text>
  <circle cx="1145" cy="410" r="290" fill="#FFE0EA"/>
  <circle cx="1145" cy="410" r="205" fill="#FFFFFF"/>
  <path d="M1120 245C1173 270 1212 322 1224 382C1236 442 1216 507 1175 551C1133 596 1071 620 1011 610C950 600 891 556 867 500C844 444 855 375 892 326C929 277 996 247 1060 239C1080 237 1101 237 1120 245Z" fill="#F69DB9"/>
  <path d="M1036 308C1076 302 1119 316 1148 344C1177 372 1193 414 1186 454C1179 494 1148 530 1111 546C1074 563 1030 560 994 539C958 517 929 477 929 435C929 392 958 348 996 326C1009 319 1022 312 1036 308Z" fill="#FFFFFF"/>
  <path d="M1034 500C1063 467 1090 431 1115 393C1136 361 1154 327 1170 292" stroke="#2F2A32" stroke-width="15" stroke-linecap="round"/>
  <path d="M1020 474C1054 479 1086 493 1115 516" stroke="#2F2A32" stroke-width="15" stroke-linecap="round"/>
  <circle cx="1172" cy="288" r="16" fill="#E6477D"/>
  <circle cx="1030" cy="504" r="15" fill="#E6477D"/>
  <rect x="70" y="180" width="650" height="88" rx="44" fill="#FFFFFF"/>
  <text x="112" y="235" fill="#E6477D" font-family="Arial, sans-serif" font-size="18" font-weight="800" letter-spacing="3">LOCAL CLUB WEBSITE</text>
  <text x="70" y="360" fill="#2F2A32" font-family="Arial, sans-serif" font-size="76" font-weight="800">Rhythmic gymnastics</text>
  <text x="70" y="445" fill="#2F2A32" font-family="Arial, sans-serif" font-size="76" font-weight="800">programs, schedule,</text>
  <text x="70" y="530" fill="#2F2A32" font-family="Arial, sans-serif" font-size="76" font-weight="800">and parent updates.</text>
  <text x="72" y="612" fill="#756A72" font-family="Arial, sans-serif" font-size="28">A Greek-first organization site for classes, trust, and local visibility.</text>
  <rect x="70" y="690" width="210" height="52" rx="26" fill="#2F2A32"/>
  <text x="113" y="724" fill="#FFFFFF" font-family="Arial, sans-serif" font-size="18" font-weight="700">View programs</text>
  <rect x="304" y="690" width="190" height="52" rx="26" fill="#FFFFFF" stroke="#F2C8D6"/>
  <text x="352" y="724" fill="#2F2A32" font-family="Arial, sans-serif" font-size="18" font-weight="700">Schedule</text>
  <rect x="70" y="805" width="250" height="62" rx="18" fill="#FFFFFF"/>
  <text x="96" y="843" fill="#E6477D" font-family="Arial, sans-serif" font-size="16" font-weight="800" letter-spacing="2">PROGRAMS</text>
  <rect x="346" y="805" width="250" height="62" rx="18" fill="#FFFFFF"/>
  <text x="372" y="843" fill="#E6477D" font-family="Arial, sans-serif" font-size="16" font-weight="800" letter-spacing="2">TIMETABLE</text>
  <rect x="622" y="805" width="250" height="62" rx="18" fill="#FFFFFF"/>
  <text x="648" y="843" fill="#E6477D" font-family="Arial, sans-serif" font-size="16" font-weight="800" letter-spacing="2">CONTACT</text>
</svg>
