<svg xmlns="http://www.w3.org/2000/svg" width="1920" height="1080" viewBox="0 0 1920 1080">
  <rect width="1920" height="1080" fill="#FAFAFA"/>
  <path d="M0 340H1920" stroke="#E9ECEC" stroke-width="3"/>
  <path d="M0 345H1920" stroke="#FFFFFF" stroke-width="2"/>
  <circle cx="112" cy="86" r="19" fill="#5BC2E6"/>
  <text x="148" y="94" fill="#050505" font-family="Arial, Helvetica, sans-serif" font-size="24" font-weight="800" letter-spacing="2">BI SOLUTIONS INSIGHT</text>
  <text x="1720" y="94" fill="#F34B3B" font-family="Arial, Helvetica, sans-serif" font-size="25" font-weight="800">05</text>
  <text x="128" y="145" fill="#050505" font-family="Arial, Helvetica, sans-serif" font-size="52" font-weight="800">AI Consulting for Greek Businesses: Practical Use</text><text x="128" y="203" fill="#050505" font-family="Arial, Helvetica, sans-serif" font-size="52" font-weight="800">Cases Beyond Hype</text>
  <path d="M128 310H430" stroke="#5BC2E6" stroke-width="12" stroke-linecap="round"/>
  <g opacity="0.32"><circle cx="200" cy="510" r="14" fill="#5BC2E6" stroke="#5BC2E6" stroke-width="1"/><circle cx="280" cy="670" r="23" fill="#F34B3B" stroke="#F34B3B" stroke-width="1"/><circle cx="420" cy="470" r="32" fill="#B8C3C4" stroke="#B8C3C4" stroke-width="1"/><circle cx="1710" cy="800" r="22" fill="#5BC2E6" stroke="#5BC2E6" stroke-width="1"/><circle cx="1650" cy="930" r="16" fill="#F34B3B" stroke="#F34B3B" stroke-width="1"/></g>
  <circle cx="1270" cy="660" r="180" fill="#FFFFFF" stroke="#050505" stroke-width="12"/><circle cx="1030" cy="520" r="24" fill="#5BC2E6" stroke="#050505" stroke-width="7"/><path d="M1270 660L1030 520" fill="none" stroke="#050505" stroke-width="7" stroke-linecap="round"/><circle cx="1500" cy="500" r="24" fill="#F34B3B" stroke="#050505" stroke-width="7"/><path d="M1270 660L1500 500" fill="none" stroke="#050505" stroke-width="7" stroke-linecap="round"/><circle cx="1510" cy="790" r="24" fill="#579FC9" stroke="#050505" stroke-width="7"/><path d="M1270 660L1510 790" fill="none" stroke="#050505" stroke-width="7" stroke-linecap="round"/><circle cx="1040" cy="805" r="24" fill="#B8C3C4" stroke="#050505" stroke-width="7"/><path d="M1270 660L1040 805" fill="none" stroke="#050505" stroke-width="7" stroke-linecap="round"/><rect x="650" y="580" width="166" height="217" rx="5" fill="#FFFFFF" stroke="#050505" stroke-width="5"/><rect x="669" y="603" width="127" height="72" fill="#D7D7D7"/><rect x="669" y="696" width="23" height="23" fill="#B8C3C4"/><rect x="707" y="696" width="23" height="23" fill="#5BC2E6"/><rect x="745" y="696" width="23" height="23" fill="#F34B3B"/><path d="M669 741L783 741" fill="none" stroke="#050505" stroke-width="4" stroke-linecap="round"/><path d="M669 757L755 757" fill="none" stroke="#050505" stroke-width="4" stroke-linecap="round"/><path d="M669 774L755 774" fill="none" stroke="#050505" stroke-width="4" stroke-linecap="round"/>
  <path d="M160 965C360 915 520 952 650 1000" fill="none" stroke="#5BC2E6" stroke-width="5" stroke-dasharray="8 18"/>
  <path d="M210 905L278 850L348 905" fill="none" stroke="#050505" stroke-width="9" stroke-linecap="round" stroke-linejoin="round"/>
  <path d="M390 920H585" stroke="#050505" stroke-width="9" stroke-linecap="round"/>
  <path d="M390 950H540" stroke="#050505" stroke-width="9" stroke-linecap="round"/>
</svg>