<svg xmlns="http://www.w3.org/2000/svg" width="1920" height="1080" viewBox="0 0 1920 1080">
  <rect width="1920" height="1080" fill="#FAFAFA"/>
  <path d="M0 340H1920" stroke="#E9ECEC" stroke-width="3"/>
  <path d="M0 345H1920" stroke="#FFFFFF" stroke-width="2"/>
  <circle cx="112" cy="86" r="19" fill="#5BC2E6"/>
  <text x="148" y="94" fill="#050505" font-family="Arial, Helvetica, sans-serif" font-size="24" font-weight="800" letter-spacing="2">BI SOLUTIONS INSIGHT</text>
  <text x="1720" y="94" fill="#F34B3B" font-family="Arial, Helvetica, sans-serif" font-size="25" font-weight="800">07</text>
  <text x="128" y="145" fill="#050505" font-family="Arial, Helvetica, sans-serif" font-size="52" font-weight="800">KPI Dictionary: The Small BI Asset That Prevents</text><text x="128" y="203" fill="#050505" font-family="Arial, Helvetica, sans-serif" font-size="52" font-weight="800">Big Reporting Arguments</text>
  <path d="M128 310H430" stroke="#5BC2E6" stroke-width="12" stroke-linecap="round"/>
  <g opacity="0.32"><circle cx="200" cy="510" r="14" fill="#5BC2E6" stroke="#5BC2E6" stroke-width="1"/><circle cx="280" cy="670" r="23" fill="#F34B3B" stroke="#F34B3B" stroke-width="1"/><circle cx="420" cy="470" r="32" fill="#B8C3C4" stroke="#B8C3C4" stroke-width="1"/><circle cx="1710" cy="800" r="22" fill="#5BC2E6" stroke="#5BC2E6" stroke-width="1"/><circle cx="1650" cy="930" r="16" fill="#F34B3B" stroke="#F34B3B" stroke-width="1"/></g>
  <circle cx="1250" cy="700" r="210" fill="none" stroke="#D7D7D7" stroke-width="44"/><circle cx="1250" cy="700" r="210" fill="none" stroke="#5BC2E6" stroke-width="44" stroke-linecap="butt" stroke-dasharray="420 903" transform="rotate(-90 1250 700)"/><circle cx="1250" cy="700" r="210" fill="none" stroke="#F34B3B" stroke-width="44" stroke-linecap="butt" stroke-dasharray="189 1134" stroke-dashoffset="-462" transform="rotate(-90 1250 700)"/><path d="M1458 713L1712 713" fill="none" stroke="#050505" stroke-width="6" stroke-linecap="round"/><rect x="1470" y="635" width="44" height="78" fill="#B8C3C4"/><rect x="1532" y="597" width="44" height="116" fill="#F34B3B"/><rect x="1594" y="559" width="44" height="154" fill="#579FC9"/><rect x="1656" y="520" width="44" height="193" fill="#579FC9"/><path d="M670 690L767 626" fill="none" stroke="#050505" stroke-width="5" stroke-linecap="round"/><path d="M670 690L767 759" fill="none" stroke="#050505" stroke-width="5" stroke-linecap="round"/><path d="M767 626L878 693" fill="none" stroke="#050505" stroke-width="5" stroke-linecap="round"/><path d="M767 759L878 693" fill="none" stroke="#050505" stroke-width="5" stroke-linecap="round"/><path d="M878 693L962 623" fill="none" stroke="#050505" stroke-width="5" stroke-linecap="round"/><path d="M878 693L962 762" fill="none" stroke="#050505" stroke-width="5" stroke-linecap="round"/><circle cx="670" cy="690" r="17" fill="#579FC9" stroke="#050505" stroke-width="5"/><circle cx="767" cy="626" r="17" fill="#5BC2E6" stroke="#050505" stroke-width="5"/><circle cx="767" cy="759" r="17" fill="#B8C3C4" stroke="#050505" stroke-width="5"/><circle cx="878" cy="693" r="17" fill="#F34B3B" stroke="#050505" stroke-width="5"/><circle cx="962" cy="623" r="17" fill="#5BC2E6" stroke="#050505" stroke-width="5"/><circle cx="962" cy="762" r="17" fill="#B8C3C4" stroke="#050505" stroke-width="5"/>
  <path d="M160 965C360 915 520 952 650 1000" fill="none" stroke="#5BC2E6" stroke-width="5" stroke-dasharray="8 18"/>
  <path d="M210 905L278 850L348 905" fill="none" stroke="#050505" stroke-width="9" stroke-linecap="round" stroke-linejoin="round"/>
  <path d="M390 920H585" stroke="#050505" stroke-width="9" stroke-linecap="round"/>
  <path d="M390 950H540" stroke="#050505" stroke-width="9" stroke-linecap="round"/>
</svg>