<svg xmlns="http://www.w3.org/2000/svg" width="1920" height="1080" viewBox="0 0 1920 1080">
  <rect width="1920" height="1080" fill="#FAFAFA"/>
  <path d="M0 340H1920" stroke="#E9ECEC" stroke-width="3"/>
  <path d="M0 345H1920" stroke="#FFFFFF" stroke-width="2"/>
  <circle cx="112" cy="86" r="19" fill="#5BC2E6"/>
  <text x="148" y="94" fill="#050505" font-family="Arial, Helvetica, sans-serif" font-size="24" font-weight="800" letter-spacing="2">BI SOLUTIONS INSIGHT</text>
  <text x="1720" y="94" fill="#F34B3B" font-family="Arial, Helvetica, sans-serif" font-size="25" font-weight="800">16</text>
  <text x="128" y="145" fill="#050505" font-family="Arial, Helvetica, sans-serif" font-size="52" font-weight="800">Predictive Analytics: Common Forecasting Mistakes</text><text x="128" y="203" fill="#050505" font-family="Arial, Helvetica, sans-serif" font-size="52" font-weight="800">Business Teams Make</text>
  <path d="M128 310H430" stroke="#5BC2E6" stroke-width="12" stroke-linecap="round"/>
  <g opacity="0.32"><circle cx="200" cy="510" r="14" fill="#5BC2E6" stroke="#5BC2E6" stroke-width="1"/><circle cx="280" cy="670" r="23" fill="#F34B3B" stroke="#F34B3B" stroke-width="1"/><circle cx="420" cy="470" r="32" fill="#B8C3C4" stroke="#B8C3C4" stroke-width="1"/><circle cx="1710" cy="800" r="22" fill="#5BC2E6" stroke="#5BC2E6" stroke-width="1"/><circle cx="1650" cy="930" r="16" fill="#F34B3B" stroke="#F34B3B" stroke-width="1"/></g>
  <rect x="700" y="460" width="870" height="400" rx="16" fill="#FFFFFF" stroke="#050505" stroke-width="10"/><path d="M790 770L1480 770" fill="none" stroke="#050505" stroke-width="10" stroke-linecap="round"/><path d="M790 550L790 770" fill="none" stroke="#050505" stroke-width="10" stroke-linecap="round"/><path d="M815 720C930 700 980 650 1080 670C1180 690 1250 525 1460 530" fill="none" stroke="#5BC2E6" stroke-width="20" stroke-linecap="round"/><path d="M815 735C960 730 1110 700 1460 610" fill="none" stroke="#F34B3B" stroke-width="12" stroke-linecap="round" stroke-dasharray="20 18"/>
  <path d="M160 965C360 915 520 952 650 1000" fill="none" stroke="#5BC2E6" stroke-width="5" stroke-dasharray="8 18"/>
  <path d="M210 905L278 850L348 905" fill="none" stroke="#050505" stroke-width="9" stroke-linecap="round" stroke-linejoin="round"/>
  <path d="M390 920H585" stroke="#050505" stroke-width="9" stroke-linecap="round"/>
  <path d="M390 950H540" stroke="#050505" stroke-width="9" stroke-linecap="round"/>
</svg>